# xmcd CD database file
# Copyright (C) 1996 Ti Kan
#
# Track frame offsets:
# 	187
# 	10975
# 	26485
# 	37072
# 	55972
# 	66402
# 	75710
# 	89807
# 	109037
# 	122722
#
# Disc length: 1769 seconds
#
# Revision: 1
# Processed by: cddbd v1.4b41PL1 Copyright (c) Steve Scherf et al.
# Submitted via: DiscPlay 3.4.1
#
DISCID=8806e70a
DTITLE=Florida Boys - Home, Once Again
DYEAR=1900
DGENRE=
TTITLE0=Rest a Little While
TTITLE1=Standing the the Presence of the King
TTITLE2=Happy Song
TTITLE3=Silver and Gold
TTITLE4=Everywhere He Went
TTITLE5=Just as Sure as the Son Shines
TTITLE6=I'm Covered by Calvary's Flow
TTITLE7=Scars in the Hands of Jesus
TTITLE8=There Had to be a Sacrifice
TTITLE9=Keep Looking Up, Keep Kneeling Down
EXTD=
EXTT0=
EXTT1=
EXTT2=
EXTT3=
EXTT4=
EXTT5=
EXTT6=
EXTT7=
EXTT8=
EXTT9=
PLAYORDER=
